HIERARCHY
ROOT Pelvis
{
	OFFSET 0.000000 0.941512 0.000000
	CHANNELS 6 Xposition Yposition Zposition Zrotation Yrotation Xrotation 
	JOINT Pelvis_L_Hip
	{
		OFFSET 0.000000 0.000000 0.000000
		CHANNELS 3 Zrotation Yrotation Xrotation
		JOINT L_Hip
		{
			OFFSET 0.062321 -0.080322 -0.016990
			CHANNELS 3 Zrotation Yrotation Xrotation
			JOINT L_Knee
			{
				OFFSET 0.093051 -0.381305 -0.029784
				CHANNELS 3 Zrotation Yrotation Xrotation
				JOINT L_Ankle
				{
					OFFSET -0.010371 -0.431000 -0.033614
					CHANNELS 3 Zrotation Yrotation Xrotation
					End Site #name: L_Foot
					{
						OFFSET 0.069299 -0.038670 0.119418
					}
				}
			}
		}
	}
	JOINT Pelvis_R_Hip
	{
		OFFSET 0.000000 0.000000 0.000000
		CHANNELS 3 Zrotation Yrotation Xrotation
		JOINT R_Hip
		{
			OFFSET -0.055334 -0.094904 -0.002373
			CHANNELS 3 Zrotation Yrotation Xrotation
			JOINT R_Knee
			{
				OFFSET -0.064207 -0.384370 -0.019592
				CHANNELS 3 Zrotation Yrotation Xrotation
				JOINT R_Ankle
				{
					OFFSET 0.025418 -0.419734 -0.065953
					CHANNELS 3 Zrotation Yrotation Xrotation
					End Site #name: R_Foot
					{
						OFFSET -0.057233 -0.039888 0.132134
					}
				}
			}
		}
	}
	JOINT Pelvis_Spine1
	{
		OFFSET 0.000000 0.000000 0.000000
		CHANNELS 3 Zrotation Yrotation Xrotation
		JOINT Spine1
		{
			OFFSET -0.005562 0.124093 -0.043360
			CHANNELS 3 Zrotation Yrotation Xrotation
			JOINT Spine2
			{
				OFFSET 0.012244 0.139499 0.029894
				CHANNELS 3 Zrotation Yrotation Xrotation
				JOINT Spine3
				{
					OFFSET -0.002556 0.056561 0.009225
					CHANNELS 3 Zrotation Yrotation Xrotation
					JOINT Spine3_Neck
					{
						OFFSET 0.000000 0.000000 0.000000
						CHANNELS 3 Zrotation Yrotation Xrotation
						JOINT Neck
						{
							OFFSET -0.005205 0.217920 -0.024551
							CHANNELS 3 Zrotation Yrotation Xrotation
							End Site #name: Head
							{
								OFFSET 0.002365 0.091850 0.046637
							}
						}
					}
					JOINT Spine3_L_Collar
					{
						OFFSET 0.000000 0.000000 0.000000
						CHANNELS 3 Zrotation Yrotation Xrotation
						JOINT L_Collar
						{
							OFFSET 0.072225 0.116603 -0.009480
							CHANNELS 3 Zrotation Yrotation Xrotation
							JOINT L_Shoulder
							{
								OFFSET 0.115937 -0.058643 -0.021018
								CHANNELS 3 Zrotation Yrotation Xrotation
								JOINT L_Elbow
								{
									OFFSET 0.021994 -0.254722 -0.024492
									CHANNELS 3 Zrotation Yrotation Xrotation
									End Site #name: L_Wrist
									{
										OFFSET 0.048810 -0.240214 0.103329
									}
								}
							}
						}
					}
					JOINT Spine3_R_Collar
					{
						OFFSET 0.000000 0.000000 0.000000
						CHANNELS 3 Zrotation Yrotation Xrotation
						JOINT R_Collar
						{
							OFFSET -0.073372 0.120704 -0.024611
							CHANNELS 3 Zrotation Yrotation Xrotation
							JOINT R_Shoulder
							{
								OFFSET -0.108089 -0.054969 -0.020504
								CHANNELS 3 Zrotation Yrotation Xrotation
								JOINT R_Elbow
								{
									OFFSET -0.033684 -0.260739 0.009889
									CHANNELS 3 Zrotation Yrotation Xrotation
									End Site #name: R_Wrist
									{
										OFFSET -0.067980 -0.232763 0.118463
									}
								}
							}
						}
					}
				}
			}
		}
	}
}
MOTION
Frames: 15
Frame Time: 0.041667
0.061389 0.970199 0.052633 -5.826055 -19.118181 -8.045778 0.000000 0.000000 0.000000 5.237021 2.735916 12.787129 -8.733287 0.363539 -21.065218 46.770389 59.864003 78.729970 0.000000 0.000000 0.000000 -3.422942 -0.438009 5.530654 -6.396903 -1.178707 -24.743847 -40.170498 -38.736890 130.986889 0.000000 0.000000 0.000000 10.900966 5.113344 -33.754875 0.071817 0.106019 2.684106 3.233448 -8.693032 20.840687 0.000000 0.000000 0.000000 -2.134557 1.139561 -38.029981 0.000000 0.000000 0.000000 38.830874 -24.124605 -23.969345 -18.769120 -1.518726 -15.289955 -90.410639 13.716641 48.591196 0.000000 0.000000 0.000000 -34.316668 -2.894811 16.193351 29.614376 0.495822 -2.889504 -24.823144 -13.082977 61.580070 
0.054755 0.974498 0.057262 -4.460176 -20.769735 -6.455156 0.000000 0.000000 0.000000 4.654821 2.544981 11.517204 -8.745588 0.478719 -20.719702 43.486003 59.090263 78.117955 0.000000 0.000000 0.000000 -4.660552 -0.013967 3.134073 -5.689829 -1.049498 -24.563468 -36.446322 -37.691856 131.111252 0.000000 0.000000 0.000000 7.316375 5.412641 -36.515021 0.733785 -0.086880 0.664079 1.114832 -13.405589 23.053010 0.000000 0.000000 0.000000 1.855644 0.087788 -35.168934 0.000000 0.000000 0.000000 38.175333 -24.468295 -25.909775 -19.932332 -0.285330 -10.634398 -89.169207 15.920051 50.254434 0.000000 0.000000 0.000000 -44.593027 -0.885112 21.302796 40.293548 -7.243660 9.149418 -28.953667 -11.907812 69.425584 
0.047917 0.978004 0.059217 -3.354040 -22.358561 -6.843501 0.000000 0.000000 0.000000 4.302258 2.765794 11.999858 -8.509537 0.567738 -20.601038 44.952676 59.099650 83.611039 0.000000 0.000000 0.000000 -5.814379 0.105957 3.419137 -4.084298 -0.893275 -25.300393 -43.384154 -37.641125 131.863913 0.000000 0.000000 0.000000 5.187943 5.246754 -36.607134 0.975987 -0.148721 -0.169554 -0.290636 -15.341121 25.600482 0.000000 0.000000 0.000000 5.029031 0.076539 -38.605395 0.000000 0.000000 0.000000 44.053943 -24.028421 -29.321264 -18.687286 -1.672103 -14.900943 -90.638109 17.257096 51.337362 0.000000 0.000000 0.000000 -49.014004 -4.192578 28.408776 33.260711 -11.873176 19.618438 -37.408130 -10.249786 78.417123 
0.041342 0.982461 0.060238 -1.927074 -23.590872 -6.850549 0.000000 0.000000 0.000000 3.012426 2.905012 11.705590 -7.328525 0.692827 -20.120647 41.913946 58.417963 83.761237 0.000000 0.000000 0.000000 -6.401487 0.266101 2.655207 -4.267280 -0.846693 -25.382830 -36.936408 -37.083595 130.036336 0.000000 0.000000 0.000000 3.543574 5.631391 -38.841521 -0.121511 0.160777 3.130586 -1.315798 -17.284964 26.146618 0.000000 0.000000 0.000000 8.676240 0.192623 -40.666174 0.000000 0.000000 0.000000 47.612323 -24.474059 -32.876508 -19.762943 -1.600391 -13.506429 -88.588614 16.809586 51.497560 0.000000 0.000000 0.000000 -52.996247 -2.298792 29.798426 29.272644 -17.177519 31.718952 -45.367823 -8.898292 75.860029 
0.035006 0.984280 0.050295 -0.316644 -24.418757 -7.786034 0.000000 0.000000 0.000000 1.578522 2.966427 11.129718 -5.884562 0.768787 -19.018930 42.167368 58.420871 85.964161 0.000000 0.000000 0.000000 -6.676025 0.370722 1.907815 -5.232818 -0.859253 -24.578723 -43.237020 -37.268194 130.283025 0.000000 0.000000 0.000000 1.080686 5.220204 -38.325361 -0.801778 0.393435 4.936824 -0.345619 -17.285750 28.100631 0.000000 0.000000 0.000000 7.340730 1.816228 -47.000486 0.000000 0.000000 0.000000 50.977707 -24.008309 -34.691091 -18.958763 -1.232487 -11.493476 -89.705353 12.475577 48.365216 0.000000 0.000000 0.000000 -52.090024 -6.250052 33.729672 17.161077 -16.695931 42.908333 -45.149507 -11.439254 68.108494 
0.028335 0.984241 0.040758 0.310019 -25.609117 -8.177847 0.000000 0.000000 0.000000 1.601472 2.926631 10.917244 -5.459087 0.806659 -18.464881 41.305911 58.304545 84.840860 0.000000 0.000000 0.000000 -5.627363 0.370968 0.867896 -6.516979 -0.878136 -24.562902 -44.141793 -35.934210 132.817094 0.000000 0.000000 0.000000 0.420530 4.704566 -35.933835 -1.024536 0.540854 6.386103 -0.636097 -17.936811 26.016489 0.000000 0.000000 0.000000 9.928575 2.179095 -47.543228 0.000000 0.000000 0.000000 50.380180 -25.346494 -36.863302 -18.763504 -0.265673 -7.590497 -84.895629 13.440200 49.466473 0.000000 0.000000 0.000000 -55.598864 -4.930475 35.424927 12.807698 -15.829795 45.126124 -48.835473 -12.015052 65.604168 
0.021476 0.985452 0.032608 0.798796 -26.088055 -7.816726 0.000000 0.000000 0.000000 1.178397 2.654019 9.774793 -3.836823 0.867575 -18.039954 35.655431 57.042953 85.293382 0.000000 0.000000 0.000000 -4.848087 0.473889 -0.732742 -7.130657 -0.853815 -23.465080 -49.187784 -37.084525 130.203427 0.000000 0.000000 0.000000 -0.566952 4.411925 -34.915019 -1.377586 0.635833 6.639585 -0.731937 -17.715375 25.495189 0.000000 0.000000 0.000000 9.737650 1.855146 -46.298970 0.000000 0.000000 0.000000 50.379640 -25.208158 -36.799280 -18.105115 -0.504722 -8.369834 -84.979268 15.626068 51.248242 0.000000 0.000000 0.000000 -53.561362 -5.531345 35.101264 9.136926 -14.089186 46.229485 -47.447706 -12.476531 66.477122 
0.014607 0.986560 0.029072 0.512129 -26.596131 -7.405133 0.000000 0.000000 0.000000 1.580905 2.517517 9.458452 -3.015268 0.895967 -17.792633 33.692378 56.590611 84.267780 0.000000 0.000000 0.000000 -3.686019 0.413578 -0.975658 -7.098611 -0.858255 -24.721923 -46.982825 -35.361654 133.635153 0.000000 0.000000 0.000000 0.501869 4.318542 -33.834152 -2.831543 0.877587 5.827340 -0.740885 -17.272155 27.248853 0.000000 0.000000 0.000000 9.212444 3.198142 -50.811936 0.000000 0.000000 0.000000 50.204955 -23.474626 -34.511510 -18.414280 -1.188592 -11.047305 -82.030027 14.922815 50.966143 0.000000 0.000000 0.000000 -49.327221 -9.016248 35.954826 5.730771 -10.564024 42.082355 -45.729136 -12.701912 71.188011 
0.005491 0.986430 0.024700 -0.392093 -26.520752 -6.801753 0.000000 0.000000 0.000000 3.150389 2.171570 8.908250 -3.362135 0.849779 -17.335518 33.159106 56.397784 82.003148 0.000000 0.000000 0.000000 -2.065506 0.252466 -0.673512 -7.173712 -0.885522 -25.814784 -48.370379 -34.692743 135.806456 0.000000 0.000000 0.000000 1.945263 4.180356 -32.593887 -4.306004 0.995884 3.781317 -1.215878 -16.762099 29.600141 0.000000 0.000000 0.000000 7.549696 3.906294 -53.659757 0.000000 0.000000 0.000000 49.856506 -20.615659 -30.381044 -17.692488 -2.558357 -16.590413 -79.653135 17.227615 53.226785 0.000000 0.000000 0.000000 -45.845790 -9.075252 33.438090 6.225161 -9.649340 39.079157 -44.654129 -12.109255 77.644559 
-0.003177 0.986566 0.020210 -0.270090 -26.425728 -6.788554 0.000000 0.000000 0.000000 3.470436 2.033843 8.536319 -3.272100 0.832215 -17.028516 36.188748 57.170062 84.936300 0.000000 0.000000 0.000000 -1.733516 0.205326 -0.504486 -6.553248 -0.851747 -26.281305 -57.035979 -34.617988 137.370191 0.000000 0.000000 0.000000 2.430528 3.823779 -30.765409 -5.109446 1.069805 2.871623 -1.768527 -15.823778 29.601695 0.000000 0.000000 0.000000 11.012551 4.352258 -54.508158 0.000000 0.000000 0.000000 50.931746 -19.953592 -29.762926 -16.522734 -2.262129 -15.380686 -82.990395 15.114779 51.128212 0.000000 0.000000 0.000000 -41.682475 -9.421520 30.824739 6.147062 -8.573441 36.616804 -41.468317 -12.154716 82.611101 
-0.011773 0.987056 0.016329 -0.541100 -26.243291 -6.279893 0.000000 0.000000 0.000000 3.931543 1.820061 7.929988 -2.646152 0.843466 -16.970405 37.627245 57.495747 86.197103 0.000000 0.000000 0.000000 -1.388722 0.221599 -0.802370 -5.940244 -0.813350 -26.258452 -55.693022 -35.047520 136.418468 0.000000 0.000000 0.000000 3.266916 3.797959 -30.421916 -5.643977 1.175501 2.861605 -1.519832 -15.383744 29.812702 0.000000 0.000000 0.000000 8.411910 4.741754 -56.462871 0.000000 0.000000 0.000000 49.101974 -19.557590 -28.101813 -16.918985 -3.018798 -18.971360 -88.004413 16.553620 51.556259 0.000000 0.000000 0.000000 -37.044923 -11.671036 29.550824 2.099727 -5.965800 33.439956 -35.125534 -13.807431 89.607933 
-0.021754 0.987438 0.013660 -0.625470 -25.999493 -5.571652 0.000000 0.000000 0.000000 4.023164 1.633749 7.273194 -1.583760 0.893556 -17.208315 38.960269 57.773988 89.329981 0.000000 0.000000 0.000000 -0.900339 0.302477 -1.589705 -5.635328 -0.788700 -24.966979 -64.415844 -38.093720 131.519820 0.000000 0.000000 0.000000 3.912961 3.600036 -29.398622 -6.992782 1.282870 1.340405 -1.044903 -14.702924 29.892196 0.000000 0.000000 0.000000 10.200061 4.448988 -55.464591 0.000000 0.000000 0.000000 49.808839 -20.256921 -29.149407 -16.503177 -2.447815 -16.764865 -90.999353 15.905463 50.753902 0.000000 0.000000 0.000000 -33.314705 -10.778798 26.124288 1.248651 -4.922685 30.472197 -26.343972 -16.903852 97.149721 
-0.033699 0.989060 0.011354 -0.588307 -25.294869 -4.282600 0.000000 0.000000 0.000000 4.220831 1.155010 5.510207 -0.770691 0.862023 -16.512680 38.218961 57.629749 89.905949 0.000000 0.000000 0.000000 -0.829724 0.443621 -2.560784 -4.746139 -0.756805 -25.317776 -57.785584 -37.607983 131.703694 0.000000 0.000000 0.000000 2.848679 3.977769 -31.724597 -5.497039 1.425335 5.470443 -0.660440 -14.584727 24.973647 0.000000 0.000000 0.000000 10.122464 3.162175 -51.196740 0.000000 0.000000 0.000000 46.819670 -19.893559 -26.474254 -15.640591 -2.582744 -17.730322 -94.352584 18.867659 52.387810 0.000000 0.000000 0.000000 -36.873653 -6.043455 24.228701 10.677482 -4.644503 17.949174 -19.892182 -20.313341 110.244565 
-0.042682 0.986835 0.010137 -1.700640 -24.965321 -4.170181 0.000000 0.000000 0.000000 5.853830 1.131537 5.954365 -1.097663 0.865598 -16.905553 39.351139 57.813051 90.654482 0.000000 0.000000 0.000000 0.370498 0.237501 -1.653120 -3.835783 -0.705425 -25.742810 -61.237994 -38.106403 131.748520 0.000000 0.000000 0.000000 5.644424 3.726649 -29.656804 -6.870234 1.473445 3.278285 -0.589556 -13.793677 25.125911 0.000000 0.000000 0.000000 9.952793 2.967499 -50.882242 0.000000 0.000000 0.000000 46.199294 -19.852996 -25.821812 -14.365505 -2.791028 -19.390445 -95.758928 20.328480 53.086664 0.000000 0.000000 0.000000 -33.353133 -3.927588 19.927655 9.093205 -3.697273 15.935173 -7.317392 -27.932952 114.405717 
-0.054175 0.984239 0.006845 -1.341182 -24.434952 -4.015324 0.000000 0.000000 0.000000 6.322720 0.974941 5.462635 -1.743476 0.789185 -16.267297 38.228444 57.593913 85.724466 0.000000 0.000000 0.000000 0.142864 0.209347 -1.390893 -3.022087 -0.647295 -27.133318 -62.373631 -36.674364 135.523464 0.000000 0.000000 0.000000 4.341453 3.534140 -29.298953 -3.179959 0.678725 2.601589 -3.153439 -12.955747 24.528477 0.000000 0.000000 0.000000 9.812198 2.900127 -50.848280 0.000000 0.000000 0.000000 46.524976 -19.278540 -24.805338 -14.916152 -2.826740 -19.200323 -97.523872 20.964420 53.269871 0.000000 0.000000 0.000000 -33.009716 -1.467517 17.232272 10.540599 -2.463002 9.750553 13.269034 -38.457353 111.458590 
